# This file uses centimeters as units for non-parametric coordinates.

mtllib Sapling_Mesh.mtl
g default
v -0.009593 0.188458 -0.015629
v -0.024148 0.192825 0.000000
v -0.009593 0.188458 0.015629
v -0.157225 0.204949 -0.023901
v -0.161890 0.206962 0.000000
v -0.157225 0.204949 0.023901
v -0.057213 0.208149 -0.044851
v -0.093974 0.212971 -0.047361
v -0.065976 0.211897 0.000000
v -0.103223 0.216959 0.000000
v -0.093974 0.212971 0.047361
v -0.057213 0.208149 0.044851
v 0.013765 0.000000 -0.013765
v 0.000000 0.000000 -0.019467
v -0.013765 0.000000 -0.013765
v -0.019467 0.000000 0.000000
v -0.013765 0.000000 0.013765
v 0.000000 0.000000 0.019467
v 0.013765 0.000000 0.013765
v 0.019467 0.000000 0.000000
v 0.018913 0.208742 -0.013765
v 0.006274 0.214195 -0.019467
v -0.006365 0.219648 -0.013765
v -0.011600 0.221907 0.000000
v -0.006365 0.219648 0.013765
v 0.006274 0.214195 0.019467
v 0.018913 0.208742 0.013765
v 0.024148 0.206484 0.000000
v 0.000000 0.000000 0.000000
v 0.006274 0.214195 0.000000
v 0.006365 0.179659 -0.013765
v -0.006274 0.185113 -0.019467
v -0.018913 0.190566 -0.013765
v -0.024148 0.192825 0.000000
v -0.018913 0.190566 0.013765
v -0.006274 0.185113 0.019467
v 0.006365 0.179659 0.013765
v 0.011600 0.177401 0.000000
v 0.005369 0.153659 -0.013765
v -0.008290 0.155361 -0.019467
v -0.021950 0.157064 -0.013765
v -0.027608 0.157769 0.000000
v -0.021950 0.157064 0.013765
v -0.008290 0.155361 0.019467
v 0.005369 0.153659 0.013765
v 0.011027 0.152954 0.000000
vt 0.268717 1.000000
vt 1.000000 1.000000
vt 1.000000 0.700030
vt 0.000000 0.722750
vt 0.000000 1.000000
vt 0.731283 1.000000
vt 1.000000 0.722750
vt 0.000000 0.700030
vt 0.000000 0.000000
vt 1.000000 0.000000
vt 0.000000 0.000000
vt 1.000000 0.000000
vt 0.000000 0.244762
vt 0.000000 1.000000
vt 1.000000 1.000000
vt 1.000000 0.244822
vt 0.000000 0.244822
vt 0.000000 1.000000
vt 1.000000 1.000000
vt 1.000000 0.244762
vt 0.375000 0.633182
vt 0.406250 0.633182
vt 0.406250 0.688440
vt 0.375000 0.688440
vt 0.437500 0.633182
vt 0.437500 0.688440
vt 0.468750 0.633182
vt 0.468750 0.688440
vt 0.500000 0.633182
vt 0.500000 0.688440
vt 0.531250 0.633182
vt 0.531250 0.688440
vt 0.562500 0.633182
vt 0.562500 0.688440
vt 0.593750 0.633182
vt 0.593750 0.688440
vt 0.625000 0.633182
vt 0.625000 0.688440
vt 0.500000 0.000000
vt 0.610485 0.045765
vt 0.500000 0.150000
vt 0.389515 0.045765
vt 0.343750 0.156250
vt 0.389515 0.266735
vt 0.500000 0.312500
vt 0.610485 0.266735
vt 0.656250 0.156250
vt 0.610485 0.954235
vt 0.500000 1.000000
vt 0.500000 0.837500
vt 0.389515 0.954235
vt 0.343750 0.843750
vt 0.389515 0.733265
vt 0.500000 0.687500
vt 0.610485 0.733265
vt 0.656250 0.843750
vt 0.375000 0.582941
vt 0.406250 0.582941
vt 0.437500 0.582941
vt 0.468750 0.582941
vt 0.500000 0.582941
vt 0.531250 0.582941
vt 0.562500 0.582941
vt 0.593750 0.582941
vt 0.625000 0.582941
vt 0.375000 0.312500
vt 0.406250 0.312500
vt 0.437500 0.312500
vt 0.468750 0.312500
vt 0.500000 0.312500
vt 0.531250 0.312500
vt 0.562500 0.312500
vt 0.593750 0.312500
vt 0.625000 0.312500
vn 0.005108 0.996559 -0.082730
vn -0.050491 0.998725 0.000000
vn 0.244646 0.969613 0.000000
vn 0.253280 0.967210 -0.018800
vn -0.050491 0.998725 0.000000
vn 0.005108 0.996559 0.082730
vn 0.253280 0.967210 0.018800
vn 0.244646 0.969613 0.000000
vn 0.390068 0.920393 0.026912
vn 0.253280 0.967210 -0.018800
vn 0.244646 0.969613 0.000000
vn 0.390210 0.920726 0.000000
vn 0.390210 0.920726 0.000000
vn 0.244646 0.969613 0.000000
vn 0.253280 0.967210 0.018800
vn 0.390068 0.920393 -0.026912
vn 0.005108 0.996559 -0.082730
vn -0.166874 0.979244 -0.115042
vn -0.167990 0.985789 0.000000
vn -0.050491 0.998725 0.000000
vn -0.050491 0.998725 0.000000
vn -0.167990 0.985789 0.000000
vn -0.166874 0.979244 0.115042
vn 0.005108 0.996559 0.082730
vn 0.660191 -0.162311 -0.733350
vn -0.052897 0.006183 -0.998581
vn 0.000000 0.000000 -1.000000
vn 0.649256 -0.280120 -0.707107
vn -0.052897 0.006183 -0.998581
vn -0.710940 0.177111 -0.680585
vn -0.649255 0.280120 -0.707107
vn 0.000000 0.000000 -1.000000
vn -0.710940 0.177111 -0.680585
vn -0.968814 0.247789 0.000000
vn -0.918186 0.396149 0.000000
vn -0.649255 0.280120 -0.707107
vn -0.968814 0.247789 0.000000
vn -0.710940 0.177111 0.680585
vn -0.649255 0.280120 0.707107
vn -0.918186 0.396149 0.000000
vn -0.710940 0.177111 0.680585
vn -0.052897 0.006183 0.998581
vn 0.000000 0.000000 1.000000
vn -0.649255 0.280120 0.707107
vn -0.052897 0.006183 0.998581
vn 0.660191 -0.162311 0.733350
vn 0.649256 -0.280120 0.707107
vn 0.000000 0.000000 1.000000
vn 0.660191 -0.162311 0.733350
vn 0.973100 -0.230385 0.000000
vn 0.918186 -0.396149 0.000000
vn 0.649256 -0.280120 0.707107
vn 0.973100 -0.230385 0.000000
vn 0.660191 -0.162311 -0.733350
vn 0.649256 -0.280120 -0.707107
vn 0.918186 -0.396149 0.000000
vn 0.000000 -1.000000 0.000000
vn 0.000000 -1.000000 0.000000
vn 0.000000 -1.000000 0.000000
vn 0.000000 -1.000000 0.000000
vn 0.000000 -1.000000 0.000000
vn 0.000000 -1.000000 0.000000
vn 0.000000 -1.000000 0.000000
vn 0.000000 -1.000000 0.000000
vn 0.000000 -1.000000 0.000000
vn 0.000000 -1.000000 0.000000
vn 0.000000 -1.000000 0.000000
vn 0.000000 -1.000000 0.000000
vn 0.000000 -1.000000 0.000000
vn 0.000000 -1.000000 0.000000
vn 0.000000 -1.000000 0.000000
vn 0.000000 -1.000000 0.000000
vn 0.000000 -1.000000 0.000000
vn 0.000000 -1.000000 0.000000
vn 0.000000 -1.000000 0.000000
vn 0.000000 -1.000000 0.000000
vn 0.000000 -1.000000 0.000000
vn 0.000000 -1.000000 0.000000
vn 0.000000 -1.000000 0.000000
vn 0.000000 -1.000000 0.000000
vn 0.396150 0.918186 0.000000
vn 0.396150 0.918186 0.000001
vn 0.396149 0.918186 0.000000
vn 0.396150 0.918186 0.000001
vn 0.396149 0.918186 0.000001
vn 0.396149 0.918186 0.000000
vn 0.396149 0.918186 0.000001
vn 0.396148 0.918187 0.000000
vn 0.396149 0.918186 0.000000
vn 0.396148 0.918187 0.000000
vn 0.396149 0.918186 -0.000001
vn 0.396149 0.918186 0.000000
vn 0.396149 0.918186 -0.000001
vn 0.396150 0.918186 -0.000001
vn 0.396149 0.918186 0.000000
vn 0.396150 0.918186 -0.000001
vn 0.396150 0.918186 0.000000
vn 0.396149 0.918186 0.000000
vn 0.396150 0.918186 0.000000
vn 0.396150 0.918186 0.000000
vn 0.396149 0.918186 0.000000
vn 0.396150 0.918186 0.000000
vn 0.396150 0.918186 0.000000
vn 0.396149 0.918186 0.000000
vn 0.690810 0.028487 -0.722475
vn -0.040501 -0.000830 -0.999179
vn -0.052897 0.006183 -0.998581
vn 0.660191 -0.162311 -0.733350
vn -0.040501 -0.000830 -0.999179
vn -0.730503 -0.019736 -0.682624
vn -0.710940 0.177111 -0.680585
vn -0.052897 0.006183 -0.998581
vn -0.730503 -0.019736 -0.682624
vn -0.999699 -0.024541 0.000000
vn -0.968814 0.247789 0.000000
vn -0.710940 0.177111 -0.680585
vn -0.999699 -0.024541 0.000000
vn -0.730503 -0.019736 0.682624
vn -0.710940 0.177111 0.680585
vn -0.968814 0.247789 0.000000
vn -0.730503 -0.019736 0.682624
vn -0.040501 -0.000830 0.999179
vn -0.052897 0.006183 0.998581
vn -0.710940 0.177111 0.680585
vn -0.040501 -0.000830 0.999179
vn 0.690810 0.028487 0.722475
vn 0.660191 -0.162311 0.733350
vn -0.052897 0.006183 0.998581
vn 0.690810 0.028487 0.722475
vn 0.999058 0.043401 0.000000
vn 0.973100 -0.230385 0.000000
vn 0.660191 -0.162311 0.733350
vn 0.999058 0.043401 0.000000
vn 0.690810 0.028487 -0.722475
vn 0.660191 -0.162311 -0.733350
vn 0.973100 -0.230385 0.000000
vn 0.714633 0.039054 -0.698409
vn 0.010796 0.000840 -0.999941
vn -0.040501 -0.000830 -0.999179
vn 0.690810 0.028487 -0.722475
vn 0.010796 0.000840 -0.999941
vn -0.703980 -0.036690 -0.709271
vn -0.730503 -0.019736 -0.682624
vn -0.040501 -0.000830 -0.999179
vn -0.703980 -0.036690 -0.709271
vn -0.998658 -0.051785 0.000000
vn -0.999699 -0.024541 0.000000
vn -0.730503 -0.019736 -0.682624
vn -0.998658 -0.051785 0.000000
vn -0.703980 -0.036690 0.709271
vn -0.730503 -0.019736 0.682624
vn -0.999699 -0.024541 0.000000
vn -0.703980 -0.036690 0.709271
vn 0.010796 0.000840 0.999941
vn -0.040501 -0.000830 0.999179
vn -0.730503 -0.019736 0.682624
vn 0.010796 0.000840 0.999941
vn 0.714633 0.039054 0.698409
vn 0.690810 0.028487 0.722475
vn -0.040501 -0.000830 0.999179
vn 0.714633 0.039054 0.698409
vn 0.998496 0.054826 0.000000
vn 0.999058 0.043401 0.000000
vn 0.690810 0.028487 0.722475
vn 0.998496 0.054826 0.000000
vn 0.714633 0.039054 -0.698409
vn 0.690810 0.028487 -0.722475
vn 0.999058 0.043401 0.000000
s off
g Sapling_Mesh1
usemtl Sapling_Mesh:initialShadingGroup
f 8/1/1 10/2/2 9/3/3 7/4/4
f 10/5/5 11/6/6 12/7/7 9/8/8
f 1/9/9 7/4/10 9/3/11 2/10/12
f 2/11/13 9/8/14 12/7/15 3/12/16
f 8/13/17 4/14/18 5/15/19 10/16/20
f 10/17/21 5/18/22 6/19/23 11/20/24
f 31/21/25 32/22/26 22/23/27 21/24/28
f 32/22/29 33/25/30 23/26/31 22/23/32
f 33/25/33 34/27/34 24/28/35 23/26/36
f 34/27/37 35/29/38 25/30/39 24/28/40
f 35/29/41 36/31/42 26/32/43 25/30/44
f 36/31/45 37/33/46 27/34/47 26/32/48
f 37/33/49 38/35/50 28/36/51 27/34/52
f 38/35/53 31/37/54 21/38/55 28/36/56
f 14/39/57 13/40/58 29/41/59
f 15/42/60 14/39/61 29/41/62
f 16/43/63 15/42/64 29/41/65
f 17/44/66 16/43/67 29/41/68
f 18/45/69 17/44/70 29/41/71
f 19/46/72 18/45/73 29/41/74
f 20/47/75 19/46/76 29/41/77
f 13/40/78 20/47/79 29/41/80
f 21/48/81 22/49/82 30/50/83
f 22/49/84 23/51/85 30/50/86
f 23/51/87 24/52/88 30/50/89
f 24/52/90 25/53/91 30/50/92
f 25/53/93 26/54/94 30/50/95
f 26/54/96 27/55/97 30/50/98
f 27/55/99 28/56/100 30/50/101
f 28/56/102 21/48/103 30/50/104
f 39/57/105 40/58/106 32/22/107 31/21/108
f 40/58/109 41/59/110 33/25/111 32/22/112
f 41/59/113 42/60/114 34/27/115 33/25/116
f 42/60/117 43/61/118 35/29/119 34/27/120
f 43/61/121 44/62/122 36/31/123 35/29/124
f 44/62/125 45/63/126 37/33/127 36/31/128
f 45/63/129 46/64/130 38/35/131 37/33/132
f 46/64/133 39/65/134 31/37/135 38/35/136
f 13/66/137 14/67/138 40/58/139 39/57/140
f 14/67/141 15/68/142 41/59/143 40/58/144
f 15/68/145 16/69/146 42/60/147 41/59/148
f 16/69/149 17/70/150 43/61/151 42/60/152
f 17/70/153 18/71/154 44/62/155 43/61/156
f 18/71/157 19/72/158 45/63/159 44/62/160
f 19/72/161 20/73/162 46/64/163 45/63/164
f 20/73/165 13/74/166 39/65/167 46/64/168
